<svg width="70" height="139" viewBox="0 0 70 139" fill="none" xmlns="http://www.w3.org/2000/svg">
<path d="M9.44043 0C9.42003 0.114505 9.40822 0.232175 9.4082 0.352539C9.4082 1.45664 10.3031 2.35156 11.4072 2.35156C12.5112 2.35141 13.4062 1.45654 13.4062 0.352539C13.4062 0.232151 13.3935 0.114527 13.373 0H17.2021C17.1817 0.114526 17.169 0.232152 17.1689 0.352539C17.1689 1.45654 18.064 2.3514 19.168 2.35156C20.2721 2.35156 21.167 1.45664 21.167 0.352539C21.167 0.232173 21.1552 0.114506 21.1348 0H24.9639C24.9435 0.114531 24.9307 0.232146 24.9307 0.352539C24.9307 1.45657 25.8257 2.35145 26.9297 2.35156C28.0338 2.35156 28.9287 1.45664 28.9287 0.352539C28.9287 0.232179 28.9169 0.114501 28.8965 0H32.7852C32.7247 0.185856 32.6924 0.383314 32.6924 0.587891C32.6924 1.69191 33.6397 2.58679 34.8086 2.58691C35.9776 2.58691 36.9258 1.69199 36.9258 0.587891C36.9258 0.38326 36.8925 0.185899 36.832 0H40.7217C40.7013 0.114522 40.6885 0.232156 40.6885 0.352539C40.6885 1.45652 41.5836 2.35136 42.6875 2.35156C43.7916 2.35156 44.6875 1.45664 44.6875 0.352539C44.6875 0.232169 44.6747 0.11451 44.6543 0H48.4824C48.462 0.11449 48.4502 0.232192 48.4502 0.352539C48.4502 1.45664 49.3451 2.35156 50.4492 2.35156C51.5533 2.35156 52.4482 1.45664 52.4482 0.352539C52.4482 0.232192 52.4364 0.114489 52.416 0H56.2998C56.2427 0.185898 56.2109 0.383262 56.2109 0.587891C56.2109 1.69199 57.1068 2.58691 58.2109 2.58691C59.3149 2.58671 60.21 1.69187 60.21 0.587891C60.2099 0.38334 60.1792 0.185836 60.1221 0H63.9756C63.9745 0.0389379 63.9727 0.0779863 63.9727 0.117188C63.9727 2.39018 65.8682 4.23315 68.2061 4.2334C68.7008 4.2334 69.1758 4.1497 69.6172 3.99805V135.235C69.176 135.084 68.7006 135.002 68.2061 135.002C65.9086 135.002 64.0396 136.781 63.9756 139H60.2041C60.1432 137.951 59.2753 137.118 58.2109 137.118C57.1464 137.118 56.2777 137.951 56.2168 139H52.4424C52.4446 138.961 52.4482 138.922 52.4482 138.883C52.4482 137.779 51.5533 136.883 50.4492 136.883C49.3451 136.883 48.4502 137.779 48.4502 138.883C48.4502 138.922 48.4538 138.961 48.4561 139H44.6816C44.6839 138.961 44.6875 138.922 44.6875 138.883C44.6875 137.779 43.7916 136.883 42.6875 136.883C41.5836 136.883 40.6885 137.779 40.6885 138.883C40.6885 138.922 40.6921 138.961 40.6943 139H36.9199C36.8554 137.951 35.9358 137.118 34.8086 137.118C33.6815 137.118 32.7628 137.951 32.6982 139H28.9229C28.9251 138.961 28.9287 138.922 28.9287 138.883C28.9287 137.779 28.0338 136.883 26.9297 136.883C25.8257 136.883 24.9307 137.779 24.9307 138.883C24.9307 138.922 24.9343 138.961 24.9365 139H21.1611C21.1634 138.961 21.167 138.922 21.167 138.883C21.167 137.779 20.272 136.883 19.168 136.883C18.064 136.883 17.169 137.779 17.1689 138.883C17.169 138.922 17.1726 138.961 17.1748 139H13.4004C13.4026 138.961 13.4062 138.922 13.4062 138.883C13.4062 137.779 12.5112 136.883 11.4072 136.883C10.3031 136.883 9.40824 137.779 9.4082 138.883C9.40821 138.922 9.41181 138.961 9.41406 139H5.40625C5.40737 138.961 5.40918 138.922 5.40918 138.883C5.40918 136.61 3.51388 134.767 1.17578 134.767C0.767766 134.767 0.37333 134.823 0 134.928V3.83594C0.373416 3.94073 0.76766 3.99804 1.17578 3.99805C3.4734 3.99805 5.34219 2.21874 5.40625 0H9.44043Z" fill="#D9D9D9"/>
</svg>
